<svg width="25" height="25" viewBox="0 0 25 25" fill="none" xmlns="http://www.w3.org/2000/svg">
<path d="M23.4375 10.9375H1.5625C0.699561 10.9375 0 11.6371 0 12.5C0 13.3629 0.699561 14.0625 1.5625 14.0625H23.4375C24.3004 14.0625 25 13.3629 25 12.5C25 11.6371 24.3004 10.9375 23.4375 10.9375Z" fill="#7A7A7A"/>
<path d="M1.5625 6.77087H23.4375C24.3004 6.77087 25 6.07131 25 5.20837C25 4.34543 24.3004 3.64587 23.4375 3.64587H1.5625C0.699561 3.64587 0 4.34543 0 5.20837C0 6.07131 0.699561 6.77087 1.5625 6.77087Z" fill="#7A7A7A"/>
<path d="M23.4375 18.2291H1.5625C0.699561 18.2291 0 18.9287 0 19.7916C0 20.6546 0.699561 21.3541 1.5625 21.3541H23.4375C24.3004 21.3541 25 20.6546 25 19.7916C25 18.9287 24.3004 18.2291 23.4375 18.2291Z" fill="#7A7A7A"/>
</svg>
