<svg width="512" height="512" viewBox="0 0 512 512" fill="none" xmlns="http://www.w3.org/2000/svg">
<path d="M255.063 15.6875C256.012 15.6897 256.961 15.6918 257.939 15.694C272.142 15.7458 286.044 16.1264 300 19C301.501 19.306 301.501 19.306 303.032 19.6182C349.064 29.2966 389.231 50.8371 423.563 82.8125C424.205 83.4103 424.848 84.0081 425.51 84.624C438.915 97.3222 450.203 112.401 460 128C460.615 128.969 460.615 128.969 461.241 129.959C477.196 155.347 487.481 183.583 493 213C493.164 213.841 493.328 214.683 493.496 215.549C504.858 276.429 489.13 342.128 454.438 392.875C448.227 401.639 441.342 409.751 434.102 417.676C432.266 419.706 430.506 421.777 428.75 423.875C392.005 465.738 332.905 491.568 278 496C270.901 496.378 263.795 496.39 256.688 496.375C255.722 496.374 254.756 496.374 253.761 496.373C229.682 496.311 207.09 492.958 184 486C183.176 485.754 182.351 485.509 181.502 485.256C153.15 476.609 126.71 461.96 104 443C103.425 442.526 102.849 442.052 102.256 441.563C89.6088 431.126 78.0916 419.956 68.0001 407C66.8535 405.596 66.8535 405.596 65.6837 404.164C34.1296 364.759 16.598 314.284 15.0001 264C14.9782 263.314 14.9563 262.629 14.9337 261.922C13.3885 205.561 32.2815 147.122 69.0001 104C69.9003 102.916 70.8 101.831 71.6993 100.746C81.7944 88.6646 92.5583 77.6847 105 68C105.971 67.2124 106.941 66.4248 107.942 65.6133C149.461 32.5122 202.29 15.4718 255.063 15.6875ZM158 73C156.839 73.6162 155.677 74.2324 154.481 74.8672C140.374 82.6378 127.667 91.9176 116 103C114.672 104.131 113.339 105.257 112 106.375C75.5595 138.205 53.668 188.498 49.0001 236C48.8421 238.884 48.7908 241.764 48.7618 244.652C48.752 245.461 48.7422 246.27 48.7322 247.104C48.3031 291.772 57.9798 333.469 83.0001 371C86.7883 369.419 89.249 367.018 92.1876 364.188C125.609 332.804 168.159 312.528 213 304C213.846 303.835 214.691 303.67 215.563 303.5C274.669 292.474 340.307 306.79 389.801 340.566C400.491 348.012 410.37 356.241 420 365C423.979 369.189 423.979 369.189 429 371C430.481 368.861 431.817 366.743 433.125 364.5C433.523 363.826 433.92 363.152 434.329 362.457C450.952 333.881 462.903 300.721 463.238 267.348C463.248 266.539 463.258 265.73 463.268 264.896C463.799 209.667 448.049 158.417 410.074 117.262C408.199 115.217 406.41 113.124 404.625 111C372.242 74.0124 319.673 51.9592 271.293 48.6484C231.61 46.3614 193.113 54.2576 158 73Z" fill="#F5E5C0"/>
<path d="M315 99C334.415 114.83 349.054 136.68 352 162C354.007 190.383 349.111 215.24 330.844 237.645C314.421 256.467 292.164 270.433 266.782 272.228C237.636 273.523 212.692 267.522 190.687 247.5C172.618 230.543 160.729 208.295 159.617 183.289C158.905 154.789 165.783 130.575 185.664 109.371C220.17 74.346 275.526 68.8177 315 99Z" fill="#F5E5C0"/>
</svg>
